<svg width="64" height="64" viewBox="0 0 64 64" fill="none" xmlns="http://www.w3.org/2000/svg">
<path d="M54.6667 44.6666H48.6667V38.6666C48.6667 37.5733 47.76 36.6666 46.6667 36.6666C45.5733 36.6666 44.6667 37.5733 44.6667 38.6666V44.6666H38.6667C37.5733 44.6666 36.6667 45.5733 36.6667 46.6666C36.6667 47.76 37.5733 48.6666 38.6667 48.6666H44.6667V54.6666C44.6667 55.76 45.5733 56.6666 46.6667 56.6666C47.76 56.6666 48.6667 55.76 48.6667 54.6666V48.6666H54.6667C55.76 48.6666 56.6667 47.76 56.6667 46.6666C56.6667 45.5733 55.76 44.6666 54.6667 44.6666Z" fill="#4991EB"/>
<path d="M58.6667 22.72V10.6134C58.6667 6.85337 56.96 5.33337 52.72 5.33337H41.9467C37.7067 5.33337 36 6.85337 36 10.6134V22.6934C36 26.48 37.7067 27.9734 41.9467 27.9734H52.72C56.96 28 58.6667 26.48 58.6667 22.72Z" fill="#4991EB"/>
<path d="M28 22.72V10.6134C28 6.85337 26.2933 5.33337 22.0533 5.33337H11.28C7.04 5.33337 5.33334 6.85337 5.33334 10.6134V22.6934C5.33334 26.48 7.04 27.9734 11.28 27.9734H22.0533C26.2933 28 28 26.48 28 22.72Z" fill="#4991EB"/>
<path d="M28 52.72V41.9467C28 37.7067 26.2933 36 22.0533 36H11.28C7.04 36 5.33334 37.7067 5.33334 41.9467V52.72C5.33334 56.96 7.04 58.6667 11.28 58.6667H22.0533C26.2933 58.6667 28 56.96 28 52.72Z" fill="#4991EB"/>
</svg>
